<?xml version="1.0" encoding="UTF-8"?>
<svg xmlns="http://www.w3.org/2000/svg" width="512" height="512" viewBox="0 0 512 512">
  <title>Hair a05 front mask</title>
  <g id="mask" fill="#fff">
    <path d="M0 0 C9.24 0 18.48 0 28 0 C28 0.66 28 1.32 28 2 C29.96 1.98 31.92 1.96 33.94 1.94 C40 2 40 2 41 3 C41.53 3.07 41.53 3.07 44.19 3.44 C48 4 48 4 54 6 C58 7.02 61.99 8.02 66 9 C66 9.66 66 10.32 66 11 C67.32 11 68.64 11 70 11 C70 11.66 70 12.32 70 13 C71.65 13.33 73.3 13.66 75 14 C79.38 15.92 83.72 17.86 88 20 C88 20.66 88 21.32 88 22 C88.66 22 89.32 22 90 22 C90 22.66 90 23.32 90 24 C91.65 24.33 93.3 24.66 95 25 C95.99 25.99 96.98 26.98 98 28 C99.98 28.99 101.96 29.98 104 31 C104 31.66 104 32.32 104 33 C104.66 33 105.32 33 106 33 C106 33.66 106 34.32 106 35 C107.32 35.66 108.64 36.32 110 37 C114 41 114 41 114 44 C114.66 44 115.32 44 116 44 C116 44.66 116 45.32 116 46 C116.66 46 117.32 46 118 46 C120 50 120 50 120 53 C120.66 53 121.32 53 122 53 C122 54.32 122 55.64 122 57 C122.66 57 123.32 57 124 57 C126.61 61.81 128 64.44 128 70 C128.66 70 129.32 70 130 70 C132 76 132 76 132 81 C132.66 81 133.32 81 134 81 C136 85 136 85 136 88 C136.66 88 137.32 88 138 88 C138 88.66 138 89.32 138 90 C138.66 90 139.32 90 140 90 C140 90.66 140 91.32 140 92 C141.32 92.66 142.64 93.32 144 94 C145.32 95.32 146.64 96.64 148 98 C149.32 98.33 150.64 98.66 152 99 C152 99.66 152 100.32 152 101 C155.96 101 159.92 101 164 101 C164 100.34 164 99.68 164 99 C165.65 97.68 167.3 96.36 169 95 C169.33 93.35 169.66 91.7 170 90 C170.66 90 171.32 90 172 90 C172 89.34 172 88.68 172 88 C173.32 88 174.64 88 176 88 C176 88.66 176 89.32 176 90 C176.66 90 177.32 90 178 90 C178 91.32 178 92.64 178 94 C178.66 94 179.32 94 180 94 C182.29 98.57 182.21 101.19 182.12 106.25 C182.11 107.7 182.09 109.15 182.07 110.64 C182.06 111.19 182.06 111.19 182 114 C181.34 114 180.68 114 180 114 C179.67 115.32 179.34 116.64 179 118 C178.5 118.82 178.5 118.82 176 123 C175.34 123 174.68 123 174 123 C174 124.32 174 125.64 174 127 C175.32 127.66 176.64 128.32 178 129 C180.71 130.59 183.38 132.26 186 134 C186 134.66 186 135.32 186 136 C186.66 136 187.32 136 188 136 C188 136.66 188 137.32 188 138 C189.32 138.66 190.64 139.32 192 140 C194 142 194 142 194 145 C194.66 145 195.32 145 196 145 C196 145.66 196 146.32 196 147 C196.66 147 197.32 147 198 147 C200 151 200 151 200 156 C200.66 156 201.32 156 202 156 C202 163.26 202 170.52 202 178 C201.34 178 200.68 178 200 178 C200 179.98 200 181.96 200 184 C199.34 184 198.68 184 198 184 C197.67 185.32 197.34 186.64 197 188 C196.67 188.99 196.34 189.98 196 191 C195.34 191 194.68 191 194 191 C194.31 195.38 194.31 195.38 195 200 C195.99 200.66 196.98 201.32 198 202 C198 202.66 198 203.32 198 204 C201.96 204 205.92 204 210 204 C210 203.34 210 202.68 210 202 C211.65 201.34 213.3 200.68 215 200 C215.66 199.34 216.32 198.68 217 198 C218.65 198 220.3 198 222 198 C222 203.61 222 209.22 222 215 C221.34 215 220.68 215 220 215 C220 216.65 220 218.3 220 220 C219.34 221.32 218.68 222.64 218 224 C217.34 224 216.68 224 216 224 C216 224.66 216 225.32 216 226 C215.34 226 214.68 226 214 226 C214 226.66 214 227.32 214 228 C212.35 228.66 210.7 229.32 209 230 C208.5 230.82 208.5 230.82 206 235 C206.66 235 207.32 235 208 235 C208 235.66 208 236.32 208 237 C208.66 237 209.32 237 210 237 C210 237.66 210 238.32 210 239 C210.66 239 211.32 239 212 239 C214 243 214 243 214 246 C214.66 246 215.32 246 216 246 C216 247.32 216 248.64 216 250 C216.66 250 217.32 250 218 250 C218 252.31 218 254.62 218 257 C218.66 257 219.32 257 220 257 C220 264.92 220 272.84 220 281 C219.34 281 218.68 281 218 281 C218 282.65 218 284.3 218 286 C217.34 287.32 216.68 288.64 216 290 C215.34 290 214.68 290 214 290 C214 291.32 214 292.64 214 294 C213.34 294 212.68 294 212 294 C211.67 295.32 211.34 296.64 211 298 C208.56 300.75 208.56 300.75 206 303 C205.34 303 204.68 303 204 303 C204 303.66 204 304.32 204 305 C203.34 305 202.68 305 202 305 C202 305.66 202 306.32 202 307 C197.94 310.86 195.49 312.17 190 314 C190 314.66 190 315.32 190 316 C189.34 316 188.68 316 188 316 C188 316.66 188 317.32 188 318 C186.35 319.32 184.7 320.64 183 322 C182.67 323.65 182.34 325.3 182 327 C181.34 327 180.68 327 180 327 C180.5 330.75 181.08 334.33 182 338 C182.66 338 183.32 338 184 338 C184 338.66 184 339.32 184 340 C185.32 340.66 186.64 341.32 188 342 C192.25 344.25 192.25 344.25 196 347 C196 348.98 196 350.96 196 353 C186.14 358.06 179.06 360.26 167.94 360.19 C166.88 360.18 166.88 360.18 161.53 360.17 C156 360 156 360 151 359 C150.01 359.33 149.02 359.66 148 360 C148 361.32 148 362.64 148 364 C149.32 364.66 150.64 365.32 152 366 C154.7 367.62 157.38 369.26 160 371 C160 371.66 160 372.32 160 373 C160.66 373 161.32 373 162 373 C162 374.65 162 376.3 162 378 C160.87 378.14 159.73 378.29 158.56 378.44 C155 379 155 379 154 380 C143.66 380.67 135.53 380.36 126 376 C121.69 375.44 121.69 375.44 118 376 C114.78 378.53 113.3 380.11 112 384 C111.34 384 110.68 384 110 384 C110 384.66 110 385.32 110 386 C97.79 394.05 97.79 394.05 90 393 C90 393.66 90 394.32 90 395 C82.08 395 74.16 395 66 395 C66 394.34 66 393.68 66 393 C65.34 393 64.68 393 64 393 C64 392.34 64 391.68 64 391 C69.48 386 69.48 386 72 386 C72 385.34 72 384.68 72 384 C72.66 384 73.32 384 74 384 C74 383.34 74 382.68 74 382 C74.99 381.34 75.98 380.68 77 380 C77.99 378.35 78.98 376.7 80 375 C80.66 375 81.32 375 82 375 C82 373.68 82 372.36 82 371 C82.66 371 83.32 371 84 371 C84.33 369.68 84.66 368.36 85 367 C85.33 366.01 85.66 365.02 86 364 C86.66 364 87.32 364 88 364 C88 362.68 88 361.36 88 360 C88.66 360 89.32 360 90 360 C90.66 357.03 91.32 354.06 92 351 C92.66 351 93.32 351 94 351 C94 349.68 94 348.36 94 347 C94.66 347 95.32 347 96 347 C96 344.03 96 341.06 96 338 C96.66 338 97.32 338 98 338 C98 335.69 98 333.38 98 331 C100 329 100 329 104.12 328.88 C105.4 328.92 106.68 328.96 108 329 C108 328.34 108 327.68 108 327 C110.64 327 113.28 327 116 327 C116 326.34 116 325.68 116 325 C118.64 323.3 121.31 321.63 124 320 C124.66 319.34 125.32 318.68 126 318 C127.32 318 128.64 318 130 318 C130 317.34 130 316.68 130 316 C130.66 316 131.32 316 132 316 C132 315.34 132 314.68 132 314 C132.66 314 133.32 314 134 314 C134.33 312.68 134.66 311.36 135 310 C135.99 308.35 136.98 306.7 138 305 C138.66 305 139.32 305 140 305 C140 304.34 140 303.68 140 303 C140.66 303 141.32 303 142 303 C142.33 301.68 142.66 300.36 143 299 C143.33 298.01 143.66 297.02 144 296 C144.66 296 145.32 296 146 296 C146 294.02 146 292.04 146 290 C146.66 290 147.32 290 148 290 C148 288.35 148 286.7 148 285 C148.66 285 149.32 285 150 285 C149.13 278.13 149.13 278.13 148 277 C142.6 276.94 137.21 276.98 131.81 277.04 C123.81 277.09 117.42 276.97 110 274 C110 273.34 110 272.68 110 272 C108.68 272 107.36 272 106 272 C106 271.34 106 270.68 106 270 C104.68 270 103.36 270 102 270 C102 269.34 102 268.68 102 268 C100.68 267.34 99.36 266.68 98 266 C97.34 264.68 96.68 263.36 96 262 C95.34 261.67 94.68 261.34 94 261 C92.13 255.4 91.82 251.78 92 246 C91.34 246 90.68 246 90 246 C90 241 90 241 91 240 C91.17 238.68 91.33 237.36 91.5 236 C92 232 92 232 93 231 C93.37 228.67 93.7 226.34 94 224 C94.66 224 95.32 224 96 224 C96 216.74 96 209.48 96 202 C95.34 202 94.68 202 94 202 C93.38 200.7 92.76 199.4 92.12 198.06 C90 194 90 194 88 193 C88 192.34 88 191.68 88 191 C87.34 191 86.68 191 86 191 C86 190.34 86 189.68 86 189 C83.36 189 80.72 189 78 189 C78 189.66 78 190.32 78 191 C77.34 191 76.68 191 76 191 C76 191.66 76 192.32 76 193 C69.64 195.28 63.72 195.27 57 195.25 C55.96 195.25 55.96 195.25 50.69 195.27 C45.99 195.05 42.39 194.57 38 193 C38 192.34 38 191.68 38 191 C36.68 191 35.36 191 34 191 C34 190.34 34 189.68 34 189 C32.35 188.67 30.7 188.34 29 188 C25.19 185.06 25.19 185.06 22 182 C22 181.34 22 180.68 22 180 C21.34 180 20.68 180 20 180 C20 179.34 20 178.68 20 178 C19.34 178 18.68 178 18 178 C16 174 16 174 16 169 C15.34 169 14.68 169 14 169 C14 166.03 14 163.06 14 160 C13.34 160 12.68 160 12 160 C12 155 12 155 13 154 C13.24 151.32 13.41 148.63 13.56 145.94 C13.65 144.46 13.73 142.99 13.82 141.46 C13.88 140.32 13.94 139.18 14 138 C13.34 138 12.68 138 12 138 C12 136.02 12 134.04 12 132 C11.34 132 10.68 132 10 132 C9.34 130.68 8.68 129.36 8 128 C7.34 127.67 6.68 127.34 6 127 C6 126.34 6 125.68 6 125 C4.68 125 3.36 125 2 125 C2 124.34 2 123.68 2 123 C-2.62 122.08 -6.56 121.87 -11.25 121.88 C-11.96 121.87 -11.96 121.87 -15.58 121.87 C-19 122 -19 122 -20 123 C-21.98 123 -23.96 123 -26 123 C-26 123.66 -26 124.32 -26 125 C-26.66 125 -27.32 125 -28 125 C-28 125.66 -28 126.32 -28 127 C-31.69 129.69 -31.69 129.69 -36 132 C-41 131 -41 131 -46 127 C-46 126.34 -46 125.68 -46 125 C-47.32 125 -48.64 125 -50 125 C-50 124.34 -50 123.68 -50 123 C-55.24 121.95 -59.91 121.87 -65.25 121.88 C-67.05 121.87 -68.85 121.87 -70.7 121.87 C-75 122 -75 122 -76 123 C-77.98 123 -79.96 123 -82 123 C-82 123.66 -82 124.32 -82 125 C-82.66 125 -83.32 125 -84 125 C-84 125.66 -84 126.32 -84 127 C-84.99 127.66 -85.98 128.32 -87 129 C-87.33 129.99 -87.66 130.98 -88 132 C-88.66 132 -89.32 132 -90 132 C-90 134.31 -90 136.62 -90 139 C-90.33 139.33 -90.66 139.66 -91 140 C-91.37 143 -91.7 146 -92 149 C-91.34 149 -90.68 149 -90 149 C-89.97 152.81 -89.95 156.62 -89.94 160.44 C-89.93 162.56 -89.91 164.68 -89.9 166.87 C-90 172 -90 172 -91 173 C-91.37 175.33 -91.7 177.66 -92 180 C-92.66 180 -93.32 180 -94 180 C-94 181.32 -94 182.64 -94 184 C-94.82 184.66 -94.82 184.66 -99 188 C-99.33 188.99 -99.66 189.98 -100 191 C-100.66 191 -101.32 191 -102 191 C-102 191.66 -102 192.32 -102 193 C-102.82 193.33 -102.82 193.33 -107 195 C-108.65 195.99 -110.3 196.98 -112 198 C-117.99 200 -122.06 200.24 -128.31 200.19 C-130.1 200.18 -131.89 200.17 -133.74 200.17 C-138 200 -138 200 -139 199 C-143.61 198.85 -147.45 199.09 -152 200 C-152 200.66 -152 201.32 -152 202 C-152.66 202 -153.32 202 -154 202 C-154 203.32 -154 204.64 -154 206 C-154.66 206 -155.32 206 -156 206 C-157.52 212.07 -157.52 217.93 -156 224 C-155.34 224 -154.68 224 -154 224 C-153.53 225.46 -153.05 226.93 -152.56 228.44 C-151 233 -151 233 -150 234 C-149.87 237.06 -149.82 240.12 -149.81 243.19 C-149.8 244.87 -149.78 246.56 -149.77 248.29 C-150 253 -150 253 -152 259 C-152.66 259 -153.32 259 -154 259 C-154 260.32 -154 261.64 -154 263 C-159.23 268 -159.23 268 -162 268 C-162 268.66 -162 269.32 -162 270 C-162.66 270 -163.32 270 -164 270 C-164 270.66 -164 271.32 -164 272 C-172.62 278.9 -181.05 281.28 -192.06 281.19 C-193.81 281.18 -195.55 281.17 -197.35 281.17 C-202 281 -202 281 -207 280 C-207.99 280.33 -208.98 280.66 -210 281 C-210 283.97 -210 286.94 -210 290 C-209.34 290 -208.68 290 -208 290 C-208 291.98 -208 293.96 -208 296 C-207.34 296 -206.68 296 -206 296 C-204 300 -204 300 -204 303 C-203.34 303 -202.68 303 -202 303 C-202 304.32 -202 305.64 -202 307 C-200.68 307.66 -199.36 308.32 -198 309 C-196 311 -196 311 -196 314 C-195.34 314 -194.68 314 -194 314 C-194 314.66 -194 315.32 -194 316 C-193.34 316 -192.68 316 -192 316 C-192 316.66 -192 317.32 -192 318 C-190.68 318.66 -189.36 319.32 -188 320 C-187.01 320.68 -186.02 321.36 -185 322.06 C-182 324 -182 324 -178 325 C-178 325.66 -178 326.32 -178 327 C-175.36 327 -172.72 327 -170 327 C-170 327.66 -170 328.32 -170 329 C-168.02 329 -166.04 329 -164 329 C-162 331 -162 331 -161.88 335.62 C-161.92 337.07 -161.96 338.51 -162 340 C-161.34 340 -160.68 340 -160 340 C-158 346 -158 346 -158 351 C-157.34 351 -156.68 351 -156 351 C-155.34 353.97 -154.68 356.94 -154 360 C-153.34 360 -152.68 360 -152 360 C-151.57 361.44 -151.13 362.89 -150.69 364.38 C-149 369 -149 369 -146 371 C-146 372.32 -146 373.64 -146 375 C-145.34 375 -144.68 375 -144 375 C-143.01 376.65 -142.02 378.3 -141 380 C-140.01 380.66 -139.02 381.32 -138 382 C-138 382.66 -138 383.32 -138 384 C-137.34 384 -136.68 384 -136 384 C-135.01 385.65 -134.02 387.3 -133 389 C-132.01 389.66 -131.02 390.32 -130 391 C-130 391.66 -130 392.32 -130 393 C-138.01 393.36 -143.07 393.04 -150 389 C-152.65 387.97 -155.32 386.96 -158 386 C-158 385.34 -158 384.68 -158 384 C-158.66 384 -159.32 384 -160 384 C-160 383.34 -160 382.68 -160 382 C-161.32 382 -162.64 382 -164 382 C-164 382.66 -164 383.32 -164 384 C-164.66 384 -165.32 384 -166 384 C-165.67 384.63 -165.67 384.63 -164 387.81 C-162 392 -162 392 -162 395 C-165.96 395 -169.92 395 -174 395 C-174 394.34 -174 393.68 -174 393 C-175.65 392.67 -177.3 392.34 -179 392 C-182.85 390.19 -186.46 388.36 -190 386 C-190 385.34 -190 384.68 -190 384 C-190.66 384 -191.32 384 -192 384 C-192 383.34 -192 382.68 -192 382 C-193.32 381.34 -194.64 380.68 -196 380 C-196.66 378.68 -197.32 377.36 -198 376 C-198.66 375.67 -199.32 375.34 -200 375 C-200 373.02 -200 371.04 -200 369 C-200.66 369 -201.32 369 -202 369 C-202 366.03 -202 363.06 -202 360 C-203.65 359.67 -205.3 359.34 -207 359 C-207.33 359.33 -207.66 359.66 -208 360 C-209.98 360 -211.96 360 -214 360 C-214 360.66 -214 361.32 -214 362 C-219.28 362 -224.56 362 -230 362 C-230 361.34 -230 360.68 -230 360 C-231.98 360 -233.96 360 -236 360 C-240.83 358.28 -244.82 355.94 -249 353 C-249.99 352.34 -250.98 351.68 -252 351 C-252 350.34 -252 349.68 -252 349 C-252.66 349 -253.32 349 -254 349 C-254 348.34 -254 347.68 -254 347 C-255.32 346.34 -256.64 345.68 -258 345 C-257 341 -257 341 -256 340 C-253.31 339.93 -250.62 339.92 -247.94 339.94 C-247.2 339.94 -247.2 339.94 -243.46 339.96 C-242.32 339.98 -241.18 339.99 -240 340 C-240 339.34 -240 338.68 -240 338 C-238.68 338 -237.36 338 -236 338 C-236 337.34 -236 336.68 -236 336 C-235.34 336 -234.68 336 -234 336 C-234.12 330.25 -234.12 330.25 -235 324 C-238.46 320.7 -241.51 319.8 -246 318 C-246 317.34 -246 316.68 -246 316 C-247.98 316 -249.96 316 -252 316 C-252 315.34 -252 314.68 -252 314 C-253.98 314 -255.96 314 -258 314 C-258.99 313.01 -259.98 312.02 -261 311 C-263.31 309.63 -265.64 308.29 -268 307 C-268 306.34 -268 305.68 -268 305 C-268.66 305 -269.32 305 -270 305 C-270 304.34 -270 303.68 -270 303 C-271.32 302.34 -272.64 301.68 -274 301 C-274.66 300.34 -275.32 299.68 -276 299 C-276 298.01 -276 297.02 -276 296 C-276.66 296 -277.32 296 -278 296 C-278 294.68 -278 293.36 -278 292 C-279.32 291.34 -280.64 290.68 -282 290 C-282 287.03 -282 284.06 -282 281 C-282.66 281 -283.32 281 -284 281 C-284 276.05 -284 271.1 -284 266 C-283.34 266 -282.68 266 -282 266 C-282 264.35 -282 262.7 -282 261 C-281.34 261 -280.68 261 -280 261 C-280 259.68 -280 258.36 -280 257 C-279.34 257 -278.68 257 -278 257 C-277.83 256.34 -277.83 256.34 -277 253 C-276.67 252.01 -276.34 251.02 -276 250 C-275.34 250 -274.68 250 -274 250 C-274 249.34 -274 248.68 -274 248 C-273.34 248 -272.68 248 -272 248 C-272 247.34 -272 246.68 -272 246 C-264.52 239 -264.52 239 -262 239 C-262 238.34 -262 237.68 -262 237 C-261.34 237 -260.68 237 -260 237 C-263 232 -263 232 -268 228 C-268 226.68 -268 225.36 -268 224 C-268.66 224 -269.32 224 -270 224 C-272 220 -272 220 -272 215 C-272.66 215 -273.32 215 -274 215 C-274 210.71 -274 206.42 -274 202 C-273.34 202 -272.68 202 -272 202 C-272 199.69 -272 197.38 -272 195 C-271.34 194.67 -271.34 194.67 -268 193 C-268 191.68 -268 190.36 -268 189 C-267.18 188.34 -267.18 188.34 -263 185 C-262.67 183.35 -262.34 181.7 -262 180 C-262.66 180 -263.32 180 -264 180 C-264 179.34 -264 178.68 -264 178 C-264.66 178 -265.32 178 -266 178 C-268 174 -268 174 -268 171 C-268.66 171 -269.32 171 -270 171 C-270 167.37 -270 163.74 -270 160 C-269.34 160 -268.68 160 -268 160 C-268 158.68 -268 157.36 -268 156 C-265 154 -265 154 -260 155 C-250.95 155.68 -250.95 155.68 -246.94 152.81 C-245 150 -245 150 -244 145 C-244.66 145 -245.32 145 -246 145 C-246 142.03 -246 139.06 -246 136 C-246.66 136 -247.32 136 -248 136 C-248 131.71 -248 127.42 -248 123 C-247.34 123 -246.68 123 -246 123 C-246 120.69 -246 118.38 -246 116 C-245.34 116 -244.68 116 -244 116 C-244 114.68 -244 113.36 -244 112 C-243.34 112 -242.68 112 -242 112 C-241.84 111.34 -241.84 111.34 -241 108 C-238.56 105.25 -238.56 105.25 -236 103 C-235.34 103 -234.68 103 -234 103 C-234 102.34 -234 101.68 -234 101 C-233.34 101 -232.68 101 -232 101 C-232 100.34 -232 99.68 -232 99 C-231.18 98.67 -231.18 98.67 -227 97 C-225.35 96.01 -223.7 95.02 -222 94 C-216 92 -216 92 -210 92 C-210 91.34 -210 90.68 -210 90 C-207.36 90 -204.72 90 -202 90 C-202 89.34 -202 88.68 -202 88 C-200.35 87.34 -198.7 86.68 -197 86 C-195.31 84.35 -193.64 82.69 -192 81 C-191.34 81 -190.68 81 -190 81 C-190 79.68 -190 78.36 -190 77 C-189.01 76.34 -188.02 75.68 -187 75 C-185.92 72.03 -184.91 69.03 -184 66 C-183.34 66 -182.68 66 -182 66 C-182 64.35 -182 62.7 -182 61 C-181.34 59.68 -180.68 58.36 -180 57 C-179.34 57 -178.68 57 -178 57 C-178 55.68 -178 54.36 -178 53 C-177.34 53 -176.68 53 -176 53 C-175.67 51.68 -175.34 50.36 -175 49 C-174.01 48.67 -173.02 48.34 -172 48 C-172 46.68 -172 45.36 -172 44 C-171.01 43.34 -170.02 42.68 -169 42 C-168.01 40.35 -167.02 38.7 -166 37 C-164.68 36.34 -163.36 35.68 -162 35 C-162 34.34 -162 33.68 -162 33 C-161.34 33 -160.68 33 -160 33 C-160 32.34 -160 31.68 -160 31 C-152.04 25.35 -152.04 25.35 -148 24 C-148 23.34 -148 22.68 -148 22 C-147.34 22 -146.68 22 -146 22 C-146 21.34 -146 20.68 -146 20 C-145.18 19.67 -145.18 19.67 -141 18 C-139.49 17.13 -137.99 16.27 -136.44 15.38 C-132 13 -132 13 -128 13 C-128 12.34 -128 11.68 -128 11 C-126.02 11 -124.04 11 -122 11 C-122 10.34 -122 9.68 -122 9 C-105.8 4.37 -81.91 2.64 -66 9 C-66 9.66 -66 10.32 -66 11 C-64.02 11 -62.04 11 -60 11 C-60 11.66 -60 12.32 -60 13 C-58.35 13.33 -56.7 13.66 -55 14 C-53.87 14.52 -52.73 15.03 -51.56 15.56 C-48 17 -48 17 -42 17 C-40.68 15.68 -39.36 14.36 -38 13 C-36.68 13 -35.36 13 -34 13 C-34 12.34 -34 11.68 -34 11 C-33.34 11 -32.68 11 -32 11 C-32 10.34 -32 9.68 -32 9 C-25.03 6.32 -18.34 4.36 -11 3 C-10.67 2.67 -10.34 2.34 -10 2 C-6.67 1.96 -3.33 1.96 0 2 C0 1.34 0 0.68 0 0 Z " transform="translate(287,14)"/>
  </g>
</svg>
