<?xml version="1.0" encoding="UTF-8"?>
<svg xmlns="http://www.w3.org/2000/svg" width="512" height="512" viewBox="0 0 512 512">
  <title>Hair a02 front mask</title>
  <g id="mask" fill="#fff">
    <path d="M0 0 C2.31 0 4.62 0 7 0 C7 0.66 7 1.32 7 2 C7.99 2.33 8.98 2.66 10 3 C10 3.99 10 4.98 10 6 C10.66 6 11.32 6 12 6 C12 6.66 12 7.32 12 8 C13.65 8.66 15.3 9.32 17 10 C17 10.66 17 11.32 17 12 C17.66 12.33 17.66 12.33 21 14 C21.66 14.5 21.66 14.5 25 17 C26.65 17 28.3 17 30 17 C31 16 31 16 31.38 12.62 C32 9 32 9 35 6 C42.03 7.83 47.27 10.42 53 15 C53.66 15.16 53.66 15.16 57 16 C57 16.66 57 17.32 57 18 C57.66 18.33 57.66 18.33 61 20 C62.65 21.38 64.3 22.76 66 24.19 C67.65 25.45 69.3 26.7 71 28 C75 27 75 27 77 26 C77.64 24.7 78.28 23.4 78.94 22.06 C81 18 81 18 84 16 C86.34 17.73 88.68 19.49 91 21.25 C92.3 22.22 93.6 23.2 94.94 24.2 C95.95 25.13 96.96 26.05 98 27 C98 28.32 98 29.64 98 31 C98.66 31.33 98.66 31.33 102 33 C104.03 34.64 106.03 36.3 108 38 C108.66 37.67 108.66 37.67 112 36 C112.75 32.37 112.75 32.37 113 29 C120 29 120 29 123 31 C123 31.66 123 32.32 123 33 C123.66 33 124.32 33 125 33 C125.99 34.65 126.98 36.3 128 38 C129.22 38.85 130.43 39.69 131.69 40.56 C132.23 40.96 132.23 40.96 135 43 C135 44.32 135 45.64 135 47 C143.64 50.45 143.64 50.45 148 49 C148 48.34 148 47.68 148 47 C152.18 44.21 155.06 44.6 160 45 C161.65 46.32 163.3 47.64 165 49 C165 50.32 165 51.64 165 53 C165.99 53.33 166.98 53.66 168 54 C168 54.99 168 55.98 168 57 C168.66 57 169.32 57 170 57 C170 58.32 170 59.64 170 61 C170.99 61.33 171.98 61.66 173 62 C175 66 175 66 175.5 69.69 C175.67 70.78 175.83 71.87 176 73 C176.66 73.33 177.32 73.66 178 74 C178 77.3 178 80.6 178 84 C178.66 84 179.32 84 180 84 C180.5 84.83 180.5 84.83 183 89 C184.65 89.33 186.3 89.66 188 90 C188 89.34 188 88.68 188 88 C192 87.87 196 87.88 200 88 C200.99 88.99 201.98 89.98 203 91 C203 91.99 203 92.98 203 94 C202.34 94.33 201.68 94.66 201 95 C199.62 97.64 198.28 100.31 197 103 C196.34 103 195.68 103 195 103 C195 103.99 195 104.98 195 106 C199 108 199 108 204.25 108.38 C209.85 108.98 213.19 110.19 218 113 C218 114.32 218 115.64 218 117 C210.85 123 210.85 123 208 123 C208 124.32 208 125.64 208 127 C207.34 127.33 206.68 127.66 206 128 C205.91 130.67 205.92 133.33 206 136 C206.66 136.66 207.32 137.32 208 138 C208 139.65 208 141.3 208 143 C208.66 143 209.32 143 210 143 C211 146 211 146 211 151 C211.66 151.33 212.32 151.66 213 152 C213 155.96 213 159.92 213 164 C213.66 164 214.32 164 215 164 C215 181.49 215 198.98 215 217 C214.34 217 213.68 217 213 217 C213.02 218.54 213.05 220.08 213.07 221.67 C213.09 223.68 213.11 225.68 213.12 227.75 C213.15 229.75 213.17 231.74 213.2 233.8 C213 239 213 239 211 243 C210.92 245.67 210.91 248.33 211 251 C210.01 251.33 209.02 251.66 208 252 C208 252.66 208 253.32 208 254 C204.7 254 201.4 254 198 254 C198 254.66 198 255.32 198 256 C196.91 256.14 195.81 256.29 194.69 256.44 C191 257 191 257 188 258 C188 258.66 188 259.32 188 260 C186.35 260.66 184.7 261.32 183 262 C183 263.32 183 264.64 183 266 C182.34 266.33 181.68 266.66 181 267 C180.63 270 180.29 273 180 276 C179.67 276.33 179.34 276.66 179 277 C178.75 280.82 178.62 284.64 178.48 288.46 C178 292 178 292 175 295 C174.34 295 173.68 295 173 295 C173 295.66 173 296.32 173 297 C172.01 297 171.02 297 170 297 C170 293.04 170 289.08 170 285 C169.34 285 168.68 285 168 285 C167.96 281.67 167.96 278.33 168 275 C168.33 274.67 168.66 274.34 169 274 C169.24 268.98 169.42 263.96 169.56 258.94 C169.61 257.51 169.65 256.08 169.69 254.62 C169.8 251.08 169.9 247.54 170 244 C169.34 244 168.68 244 168 244 C167.88 242.37 167.75 240.74 167.62 239.06 C167.42 237.39 167.21 235.72 167 234 C166.34 233.67 165.68 233.34 165 233 C164 230.67 163 228.33 162 226 C161.34 225.67 160.68 225.34 160 225 C160 224.34 160 223.68 160 223 C159.34 223 158.68 223 158 223 C157.01 221.35 156.02 219.7 155 218 C154.34 217.67 153.68 217.34 153 217 C152.97 212.69 152.95 208.38 152.94 204.06 C152.93 202.83 152.92 201.6 152.91 200.33 C152.9 197.22 152.95 194.11 153 191 C153.33 190.67 153.66 190.34 154 190 C154.24 186.65 154.41 183.29 154.56 179.94 C154.65 178.09 154.73 176.24 154.82 174.34 C154.88 172.91 154.94 171.48 155 170 C154.34 170 153.68 170 153 170 C153 167.36 153 164.72 153 162 C152.01 161.67 151.02 161.34 150 161 C150 160.01 150 159.02 150 158 C149.34 158 148.68 158 148 158 C148 156.68 148 155.36 148 154 C146.68 153.34 145.36 152.68 144 152 C142.35 150.68 140.7 149.36 139 148 C137.35 147.34 135.7 146.68 134 146 C133.34 145.34 132.68 144.68 132 144 C127.73 142.29 124.48 141.6 120 141 C119.67 140.67 119.34 140.34 119 140 C115.63 139.9 112.25 139.87 108.88 139.87 C106.81 139.87 104.74 139.86 102.61 139.86 C100.43 139.87 98.25 139.87 96 139.88 C93.82 139.87 91.64 139.87 89.39 139.86 C87.32 139.86 85.26 139.87 83.12 139.87 C82.17 139.87 82.17 139.87 77.32 139.87 C73 140 73 140 72 141 C69 141.33 66 141.67 63 142 C62.67 142.33 62.34 142.66 62 143 C59 143.33 56 143.67 53 144 C52.67 144.33 52.34 144.66 52 145 C49 145.33 46 145.67 43 146 C42.67 146.33 42.34 146.66 42 147 C38.67 147.67 35.33 148.33 32 149 C31.67 149.33 31.34 149.66 31 150 C28 150.33 25 150.67 22 151 C21.67 151.33 21.34 151.66 21 152 C18 152.33 15 152.67 12 153 C11.67 153.33 11.34 153.66 11 154 C6.67 154.08 2.33 154.08 -2 154 C-2.33 153.67 -2.66 153.34 -3 153 C-4.81 152.84 -6.63 152.67 -8.5 152.5 C-14 152 -14 152 -15 151 C-16.44 150.86 -17.89 150.71 -19.38 150.56 C-24 150 -24 150 -27 148 C-29.66 147.64 -32.33 147.3 -35 147 C-35.33 146.67 -35.66 146.34 -36 146 C-37.16 145.84 -38.31 145.67 -39.5 145.5 C-43 145 -43 145 -44 144 C-45.49 143.84 -46.97 143.67 -48.5 143.5 C-53 143 -53 143 -54 142 C-55.81 141.84 -57.63 141.67 -59.5 141.5 C-65 141 -65 141 -66 140 C-73.18 139.71 -80.37 139.77 -87.56 139.75 C-89.59 139.73 -91.62 139.71 -93.71 139.69 C-95.66 139.68 -97.61 139.68 -99.63 139.67 C-101.42 139.66 -103.22 139.65 -105.07 139.64 C-110.02 140 -113.48 141.03 -118 143 C-118.87 143.33 -118.87 143.33 -123.25 145 C-128 147 -128 147 -132 150 C-133.65 150.66 -135.3 151.32 -137 152 C-137.66 153.32 -138.32 154.64 -139 156 C-139.66 156 -140.32 156 -141 156 C-141 156.66 -141 157.32 -141 158 C-141.66 158 -142.32 158 -143 158 C-143 159.65 -143 161.3 -143 163 C-143.99 163.33 -144.98 163.66 -146 164 C-146 167.96 -146 171.92 -146 176 C-146.66 176 -147.32 176 -148 176 C-148 177.98 -148 179.96 -148 182 C-147.34 182 -146.68 182 -146 182 C-145.84 184.97 -145.84 184.97 -145 200 C-144.34 200.33 -143.68 200.66 -143 201 C-143 205.62 -143 210.24 -143 215 C-143.66 215.33 -144.32 215.66 -145 216 C-145.33 216.99 -145.66 217.98 -146 219 C-146.66 219 -147.32 219 -148 219 C-148 219.66 -148 220.32 -148 221 C-148.82 221.33 -148.82 221.33 -153 223 C-153 224.32 -153 225.64 -153 227 C-153.66 227.33 -154.32 227.66 -155 228 C-156.39 231.31 -157.73 234.64 -159 238 C-159.66 238 -160.32 238 -161 238 C-161 253.51 -161 269.02 -161 285 C-161.66 285 -162.32 285 -163 285 C-163.33 286.32 -163.66 287.64 -164 289 C-165.32 289 -166.64 289 -168 289 C-168 286.36 -168 283.72 -168 281 C-168.99 280.67 -169.98 280.34 -171 280 C-171.12 278.93 -171.25 277.86 -171.38 276.75 C-172.25 271.53 -173.3 269.5 -177.62 266.38 C-178.74 265.59 -179.85 264.81 -181 264 C-181 263.34 -181 262.68 -181 262 C-181.5 261.88 -181.5 261.88 -184 261.25 C-188.28 259.91 -192.04 258.09 -196 256 C-196 255.34 -196 254.68 -196 254 C-197.65 253.34 -199.3 252.68 -201 252 C-201 249.36 -201 246.72 -201 244 C-201.99 243.67 -202.98 243.34 -204 243 C-203.67 239.37 -203.34 235.74 -203 232 C-203.99 231.67 -204.98 231.34 -206 231 C-206 225.72 -206 220.44 -206 215 C-206.66 215 -207.32 215 -208 215 C-208 199.49 -208 183.98 -208 168 C-207.34 168 -206.68 168 -206 168 C-206 164.7 -206 161.4 -206 158 C-205.34 157.67 -204.68 157.34 -204 157 C-204 155.02 -204 153.04 -204 151 C-203.67 150.67 -203.67 150.67 -202 149 C-201.34 147.02 -200.68 145.04 -200 143 C-199.34 141.02 -198.68 139.04 -198 137 C-197.34 137 -196.68 137 -196 137 C-196 135.02 -196 133.04 -196 131 C-196.66 131 -197.32 131 -198 131 C-198.33 130.01 -198.66 129.02 -199 128 C-199.66 127.67 -200.32 127.34 -201 127 C-201 126.34 -201 125.68 -201 125 C-201.99 124.67 -202.98 124.34 -204 124 C-204.66 122.68 -205.32 121.36 -206 120 C-207.65 119.01 -209.3 118.02 -211 117 C-211 115.68 -211 114.36 -211 113 C-204.58 109.25 -199.35 108.53 -192 108 C-191.34 107.67 -191.34 107.67 -188 106 C-188.33 104.35 -188.66 102.7 -189 101 C-189.66 100.67 -190.32 100.34 -191 100 C-191.99 98.35 -192.98 96.7 -194 95 C-194.66 94.67 -195.32 94.34 -196 94 C-195 90 -195 90 -193 88 C-189.86 87.72 -186.71 87.55 -183.56 87.44 C-174.28 87.09 -174.28 87.09 -171 86 C-171 82.04 -171 78.08 -171 74 C-170.34 73.67 -169.68 73.34 -169 73 C-168.86 71.64 -168.71 70.28 -168.56 68.88 C-168.03 64.28 -167.01 61.11 -165 57 C-164.34 57 -163.68 57 -163 57 C-163 56.34 -163 55.68 -163 55 C-158 56 -158 56 -153.56 59.69 C-152.06 60.78 -150.55 61.87 -149 63 C-147.02 62.34 -145.04 61.68 -143 61 C-143 59.68 -143 58.36 -143 57 C-142.34 57 -141.68 57 -141 57 C-140.67 55.68 -140.34 54.36 -140 53 C-139.34 53 -138.68 53 -138 53 C-138 51.68 -138 50.36 -138 49 C-137.34 49 -136.68 49 -136 49 C-135.67 47.68 -135.34 46.36 -135 45 C-128.65 39 -128.65 39 -126 39 C-126 37.68 -126 36.36 -126 35 C-121.71 32.14 -118.04 32.87 -113 33 C-113 34.98 -113 36.96 -113 39 C-108.88 39.81 -108.88 39.81 -104 40 C-100.56 37.56 -100.56 37.56 -98 35 C-97.34 35 -96.68 35 -96 35 C-96 33.68 -96 32.36 -96 31 C-94.49 30.3 -92.99 29.6 -91.44 28.88 C-86 26 -86 26 -82.31 22.81 C-78.72 19.76 -76.72 18.34 -72 18 C-68.06 20.62 -68.06 20.62 -65 24 C-65 25.32 -65 26.64 -65 28 C-64.01 28.66 -63.02 29.32 -62 30 C-58 29 -58 29 -56 28 C-55.01 26.35 -54.02 24.7 -53 23 C-50.48 20.68 -50.48 20.68 -47.62 18.44 C-47.16 18.07 -47.16 18.07 -44.79 16.18 C-43.87 15.46 -42.95 14.74 -42 14 C-41.18 13.34 -41.18 13.34 -37 10 C-36.18 9.67 -36.18 9.67 -32 8 C-31.34 7.34 -30.68 6.68 -30 6 C-25 7 -25 7 -23 8 C-23 10.64 -23 13.28 -23 16 C-21.35 16.33 -19.7 16.66 -18 17 C-14.81 14.56 -14.81 14.56 -12 12 C-11.34 12 -10.68 12 -10 12 C-10 11.34 -10 10.68 -10 10 C-9.18 9.67 -9.18 9.67 -5 8 C-5 7.34 -5 6.68 -5 6 C-4.34 6 -3.68 6 -3 6 C-2.67 4.68 -2.34 3.36 -2 2 C-1.34 2 -0.68 2 0 2 C0 1.34 0 0.68 0 0 Z " transform="translate(254,14)"/>
  </g>
</svg>
